<svg id="_37_Stop_Flag" enable-background="new 0 0 512 512" viewBox="0 0 512 512" xmlns="http://www.w3.org/2000/svg" xmlns:xlink="http://www.w3.org/1999/xlink"><linearGradient id="lg1"><stop offset="0" stop-color="#ffdfcf"/><stop offset="1" stop-color="#ffa78f"/></linearGradient><linearGradient id="SVGID_1_" gradientTransform="matrix(.966 .259 .259 -.966 -97.875 445.349)" gradientUnits="userSpaceOnUse" x1="142.082" x2="213.337" xlink:href="#lg1" y1="124.777" y2="3.092"/><linearGradient id="lg2"><stop offset="0" stop-color="#f89580" stop-opacity="0"/><stop offset=".1028" stop-color="#f5937e" stop-opacity=".049"/><stop offset=".2747" stop-color="#ee8e79" stop-opacity=".18"/><stop offset=".4946" stop-color="#e38671" stop-opacity=".393"/><stop offset=".7511" stop-color="#d57c65" stop-opacity=".686"/><stop offset=".9972" stop-color="#c5715a"/></linearGradient><linearGradient id="SVGID_00000141444522211948420300000014187459612034901690_" gradientTransform="matrix(.966 .259 .259 -.966 -97.875 445.349)" gradientUnits="userSpaceOnUse" x1="153.179" x2="190.444" xlink:href="#lg2" y1="88.637" y2="76.869"/><linearGradient id="SVGID_00000069377839618900836510000014403735537958116520_" gradientTransform="matrix(.966 .259 .259 -.966 -97.875 445.349)" gradientUnits="userSpaceOnUse" x1="163.602" x2="163.602" xlink:href="#lg2" y1="45.623" y2="13.389"/><linearGradient id="SVGID_00000150813681608418072520000016956215545615801484_" gradientTransform="matrix(.966 .259 .259 -.966 -97.875 445.349)" gradientUnits="userSpaceOnUse" x1="154.153" x2="178.458" xlink:href="#lg2" y1="58.268" y2="58.268"/><linearGradient id="SVGID_00000000206171599539267640000016337978350398242967_" gradientTransform="matrix(1 0 0 -1 0 514)" gradientUnits="userSpaceOnUse" x1="287.204" x2="406.025" y1="420.174" y2="235.718"><stop offset="0" stop-color="#fe0364"/><stop offset=".2057" stop-color="#f3075e"/><stop offset=".563" stop-color="#d7134f"/><stop offset="1" stop-color="#ac2538"/></linearGradient><linearGradient id="lg3"><stop offset="0" stop-color="#972437" stop-opacity="0"/><stop offset=".229" stop-color="#902333" stop-opacity=".072"/><stop offset=".4928" stop-color="#7e232a" stop-opacity=".283"/><stop offset=".7726" stop-color="#61221b" stop-opacity=".632"/><stop offset="1" stop-color="#42210b"/></linearGradient><linearGradient id="SVGID_00000016043639922101885160000006124026613054252431_" gradientTransform="matrix(.966 .259 .259 -.966 -97.875 445.349)" gradientUnits="userSpaceOnUse" x1="347.666" x2="363.329" xlink:href="#lg3" y1="327.514" y2="252.331"/><linearGradient id="SVGID_00000102535659459781010830000008274851760429911469_" gradientTransform="matrix(.966 .259 .259 -.966 -97.875 445.349)" gradientUnits="userSpaceOnUse" x1="246.911" x2="201.961" xlink:href="#lg3" y1="360.492" y2="360.492"/><linearGradient id="SVGID_00000033364433046372152150000017542429912201850301_" gradientTransform="matrix(.966 .259 .259 -.966 -97.875 445.349)" gradientUnits="userSpaceOnUse" x1="449.487" x2="507.963" xlink:href="#lg3" y1="397.273" y2="397.273"/><linearGradient id="lg4"><stop offset="0" stop-color="#e1d3ce"/><stop offset="1" stop-color="#9e9797"/></linearGradient><linearGradient id="SVGID_00000009561742243321172620000015747284421458871452_" gradientTransform="matrix(.966 .259 .259 -.966 -97.875 445.349)" gradientUnits="userSpaceOnUse" x1="175.745" x2="203.486" xlink:href="#lg4" y1="237.083" y2="237.083"/><linearGradient id="lg5"><stop offset="0" stop-color="#433f43" stop-opacity="0"/><stop offset=".4114" stop-color="#373537" stop-opacity=".269"/><stop offset="1" stop-color="#1a1a1a"/></linearGradient><linearGradient id="SVGID_00000161628353315521642560000014284157206574506627_" gradientTransform="matrix(1 0 0 -1 0 514)" gradientUnits="userSpaceOnUse" x1="100.31" x2="100.31" xlink:href="#lg5" y1="91.554" y2="125.297"/><linearGradient id="SVGID_00000044146257788296824720000002682305783872843703_" gradientTransform="matrix(.966 .259 .259 -.966 -97.875 445.349)" gradientUnits="userSpaceOnUse" x1="188.482" x2="216.303" xlink:href="#lg5" y1="237.083" y2="237.083"/><linearGradient id="SVGID_00000047048143977452286970000001297380307092001954_" gradientTransform="matrix(.966 .259 .259 -.966 -97.875 445.349)" gradientUnits="userSpaceOnUse" x1="190.524" x2="190.524" xlink:href="#lg5" y1="459.177" y2="506.589"/><linearGradient id="SVGID_00000077283738371182283730000002803163087291832729_" gradientTransform="matrix(.966 .259 .259 -.966 -97.875 445.349)" gradientUnits="userSpaceOnUse" x1="190.524" x2="190.524" xlink:href="#lg5" y1="2.13" y2="-20.612"/><linearGradient id="SVGID_00000152248844758040232790000000414958649408629651_" gradientTransform="matrix(.966 .259 .259 -.966 -97.875 445.349)" gradientUnits="userSpaceOnUse" x1="178.812" x2="201.694" xlink:href="#lg4" y1="492.802" y2="492.802"/><linearGradient id="SVGID_00000107580725180195036300000006980107668957301429_" gradientTransform="matrix(.966 .259 .259 -.966 -97.875 445.349)" gradientUnits="userSpaceOnUse" x1="190.524" x2="190.524" xlink:href="#lg5" y1="492.905" y2="467.864"/><linearGradient id="SVGID_00000138566895074262600040000000406517937804471476_" gradientTransform="matrix(.966 .259 .259 -.966 -97.875 445.349)" gradientUnits="userSpaceOnUse" x1="201.269" x2="218.251" xlink:href="#lg5" y1="495.057" y2="505.199"/><linearGradient id="SVGID_00000047781737079458395850000003819064194744187017_" gradientTransform="matrix(.966 .259 .259 -.966 -97.875 445.349)" gradientUnits="userSpaceOnUse" x1="216.776" x2="218.548" xlink:href="#lg1" y1="137.287" y2="111.152"/><linearGradient id="SVGID_00000089544331014600636370000014612948932576974262_" gradientTransform="matrix(.966 .259 .259 -.966 -97.875 445.349)" gradientUnits="userSpaceOnUse" x1="249.348" x2="214.924" xlink:href="#lg2" y1="110.324" y2="127.389"/><linearGradient id="SVGID_00000141450349687471021450000004581709828629844649_" gradientTransform="matrix(.966 .259 .259 -.966 -97.875 445.349)" gradientUnits="userSpaceOnUse" x1="231.568" x2="241.208" xlink:href="#lg2" y1="123.364" y2="117.372"/><linearGradient id="SVGID_00000103977928483217831770000004086224965316614536_" gradientTransform="matrix(.966 .259 .259 -.966 -97.875 445.349)" gradientUnits="userSpaceOnUse" x1="218.477" x2="220.261" xlink:href="#lg1" y1="104.909" y2="78.596"/><linearGradient id="SVGID_00000179638899227280882190000008720688718250238850_" gradientTransform="matrix(.966 .259 .259 -.966 -97.875 445.349)" gradientUnits="userSpaceOnUse" x1="233.615" x2="244.283" xlink:href="#lg2" y1="90.697" y2="84.065"/><linearGradient id="SVGID_00000145750178892054438600000001957229590758163622_" gradientTransform="matrix(.966 .259 .259 -.966 -97.875 445.349)" gradientUnits="userSpaceOnUse" x1="216.776" x2="218.548" xlink:href="#lg1" y1="72.376" y2="46.241"/><linearGradient id="SVGID_00000093897267699845527520000008036799651071053497_" gradientTransform="matrix(.966 .259 .259 -.966 -97.875 445.349)" gradientUnits="userSpaceOnUse" x1="231.568" x2="241.208" xlink:href="#lg2" y1="58.453" y2="52.461"/><linearGradient id="SVGID_00000144326384969423599530000013425978797135825059_" gradientTransform="matrix(.966 .259 .259 -.966 -97.875 445.349)" gradientUnits="userSpaceOnUse" x1="214.029" x2="215.781" xlink:href="#lg1" y1="39.794" y2="13.949"/><linearGradient id="SVGID_00000138570459098049414320000017034722533697801623_" gradientTransform="matrix(.966 .259 .259 -.966 -97.875 445.349)" gradientUnits="userSpaceOnUse" x1="224.691" x2="235.359" xlink:href="#lg2" y1="25.786" y2="19.154"/><linearGradient id="SVGID_00000125565705061924022320000009759750698728967853_" gradientTransform="matrix(.966 .259 .259 -.966 -97.875 445.349)" gradientUnits="userSpaceOnUse" x1="143.231" x2="189.861" xlink:href="#lg1" y1="127.881" y2="75.815"/><linearGradient id="SVGID_00000094578601023407383290000018047431085760021939_" gradientTransform="matrix(1 0 0 -1 0 514)" gradientUnits="userSpaceOnUse" x1="55.977" x2="42.789" xlink:href="#lg2" y1="107.576" y2="110.427"/><linearGradient id="SVGID_00000028315663153175777580000012698762420580681862_" gradientTransform="matrix(1 0 0 -1 0 514)" gradientUnits="userSpaceOnUse" x1="20.532" x2="42.275" y1="119.159" y2="112.743"><stop offset="0" stop-color="#5a5a5a"/><stop offset="1" stop-color="#444"/></linearGradient><linearGradient id="SVGID_00000148644155911527150280000005004525931102550695_" gradientTransform="matrix(1 0 0 -1 0 514)" gradientUnits="userSpaceOnUse" x1="32.395" x2="18.494" xlink:href="#lg5" y1="115.709" y2="119.63"/><linearGradient id="SVGID_00000182489778005747121160000015029089390175028655_" gradientTransform="matrix(1 0 0 -1 0 514)" gradientUnits="userSpaceOnUse" x1="20.103" x2="13.687" xlink:href="#lg5" y1="79.198" y2="56.03"/><linearGradient id="SVGID_00000132047391697681776240000017336725268126409354_" gradientTransform="matrix(1 0 0 -1 0 514)" gradientUnits="userSpaceOnUse" x1="-1.246" x2="19.427" y1="129.403" y2="123.343"><stop offset="0" stop-color="#fea613"/><stop offset="1" stop-color="#e94444"/></linearGradient><g><g><g><path d="m150.727 364.636-33.016 123.217-48.336-12.952c-4.312-1.155-8.44-2.851-12.294-5.018-3.857-2.181-7.439-4.839-10.661-7.933-3.881-3.745-8.651-6.439-13.86-7.835l-8.396-2.25c-6.191-1.659-9.865-8.022-8.206-14.213l21.992-82.075c1.659-6.191 8.022-9.865 14.213-8.206 7.156 1.917 14.539 2.553 21.809 1.922 9.391-.815 18.851-.173 27.956 2.267z" fill="url(#SVGID_1_)"/><path d="m150.729 364.639-33.015 123.214-48.339-12.952c-4.313-1.156-8.438-2.853-12.29-5.02-3.863-2.179-7.442-4.838-10.662-7.931-3.885-3.743-8.652-6.438-13.859-7.833l-8.402-2.251c-6.191-1.659-9.865-8.022-8.206-14.213l21.993-82.079c1.659-6.191 8.022-9.865 14.213-8.206h.001c7.158 1.918 14.546 2.553 21.819 1.923 9.384-.813 18.837-.169 27.935 2.269z" fill="url(#SVGID_00000141444522211948420300000014187459612034901690_)"/><path d="m29.546 386.932-13.591 50.722c-1.659 6.191 2.015 12.554 8.206 14.213l8.402 2.251c5.207 1.395 9.974 4.09 13.859 7.833 3.22 3.093 6.8 5.752 10.662 7.931 3.853 2.167 7.977 3.864 12.29 5.02l48.339 12.952 19.324-72.119c.001-.001-107.491-28.803-107.491-28.803z" fill="url(#SVGID_00000069377839618900836510000014403735537958116520_)"/><path d="m32.753 374.966-16.797 62.688c-1.659 6.191 2.015 12.554 8.206 14.213l8.402 2.251c5.207 1.395 9.974 4.09 13.859 7.833 3.22 3.093 6.8 5.752 10.662 7.931 3.853 2.167 7.977 3.864 12.29 5.02l48.339 12.952 22.531-84.086z" fill="url(#SVGID_00000150813681608418072520000016956215545615801484_)"/><g><g><path d="m507.526 92.766c-36.474-49.595-86.594-43.633-144.11-30.821-55.622 12.39-104.327 18.371-140.464-26.104-4.345-5.347-12.891-3.599-14.674 3.056-16.501 61.584-33.003 123.167-49.504 184.751-1.811 6.758-.457 13.981 3.689 19.617 36.474 49.594 86.594 43.634 144.11 30.822 55.622-12.39 104.328-18.373 140.464 26.103 4.345 5.347 12.891 3.599 14.674-3.056 16.501-61.583 33.003-123.167 49.504-184.75 1.81-6.759.456-13.982-3.689-19.618z" fill="url(#SVGID_00000000206171599539267640000016337978350398242967_)"/><path d="m186.981 118.379c-9.402 35.089-18.804 70.178-28.206 105.267-1.811 6.758-.457 13.981 3.689 19.617 36.474 49.594 86.594 43.634 144.11 30.822 55.622-12.39 104.328-18.373 140.464 26.103 4.345 5.347 12.891 3.599 14.674-3.056 8.762-32.699 17.523-65.398 26.285-98.097z" fill="url(#SVGID_00000016043639922101885160000006124026613054252431_)"/><path d="m321.067 69.587c-38.023 4.401-71.483-.969-98.115-33.747-4.345-5.347-12.89-3.599-14.674 3.056-16.501 61.584-33.003 123.167-49.504 184.751-1.811 6.758-.457 13.981 3.689 19.617 27.197 36.98 61.982 43.069 101.761 38.464z" fill="url(#SVGID_00000102535659459781010830000008274851760429911469_)"/><path d="m507.526 92.766c-34.026-46.266-79.929-44.182-132.631-33.293l-56.843 212.141c50.842-10.505 95.357-12.815 128.985 28.574 4.345 5.347 12.891 3.599 14.674-3.056 16.501-61.583 33.003-123.167 49.504-184.75 1.81-6.757.456-13.98-3.689-19.616z" fill="url(#SVGID_00000033364433046372152150000017542429912201850301_)"/></g><g><path d="m196.576 17.245 32.662 8.752-128.396 479.18c-1.314 4.906-6.364 7.821-11.27 6.507l-14.885-3.988c-4.906-1.314-7.821-6.364-6.507-11.27z" fill="url(#SVGID_00000009561742243321172620000015747284421458871452_)"/><path d="m97.75 386.069-29.57 110.357c-1.315 4.909 1.598 9.955 6.507 11.27l14.885 3.988c4.909 1.315 9.955-1.598 11.27-6.507l31.915-119.108z" fill="url(#SVGID_00000161628353315521642560000014284157206574506627_)"/><path d="m74.689 507.696 14.882 3.988c4.909 1.315 9.955-1.598 11.27-6.507l128.396-479.18-23.771-6.369z" fill="url(#SVGID_00000044146257788296824720000002682305783872843703_)"/><path d="m181.616 73.076 14.96-55.831 32.662 8.752-14.96 55.831z" fill="url(#SVGID_00000047048143977452286970000001297380307092001954_)"/><path d="m79.711 453.389-11.531 43.037c-1.315 4.909 1.598 9.955 6.507 11.27l14.885 3.988c4.909 1.315 9.955-1.598 11.27-6.507l11.532-43.036z" fill="url(#SVGID_00000077283738371182283730000002803163087291832729_)"/><g><path d="m242.826 26.294c-3.338-11.676-12.979-21.677-24.599-25.087-12.035-3.532-25.02.989-33.692 9.64-5.773 5.76-3.698 15.573 3.911 18.507 13.58 5.237 27.392 8.928 41.78 11.163 8.126 1.264 14.86-6.317 12.6-14.223z" fill="url(#SVGID_00000152248844758040232790000000414958649408629651_)"/><path d="m184.535 10.847c-5.773 5.76-3.698 15.573 3.911 18.507 13.58 5.237 27.392 8.928 41.78 11.163 8.126 1.263 14.86-6.318 12.599-14.224-.699-2.446-1.678-4.816-2.891-7.07l-49.414-13.24c-2.152 1.416-4.164 3.048-5.985 4.864z" fill="url(#SVGID_00000107580725180195036300000006980107668957301429_)"/><path d="m218.227 1.207c-3.364-.987-6.802-1.344-10.2-1.159l-8.868 33.095c10.135 3.274 20.443 5.724 31.067 7.375 8.126 1.263 14.86-6.318 12.599-14.224-3.338-11.676-12.978-21.677-24.598-25.087z" fill="url(#SVGID_00000138566895074262600040000000406517937804471476_)"/></g></g></g></g><g><g><path d="m122.45 373.861c2.32-8.657 11.218-13.794 19.875-11.475l13.97 3.743c8.28 2.219 13.226 11.513 11.02 19.746-3.916 14.613-14.278 12.927-14.961 12.799l-.037-.01-18.391-4.928c-8.659-2.32-13.796-11.218-11.476-19.875z" fill="url(#SVGID_00000047781737079458395850000003819064194744187017_)"/><path d="m122.45 373.861c2.32-8.657 11.218-13.794 19.875-11.475l13.97 3.743c8.28 2.219 13.226 11.513 11.02 19.746-3.916 14.613-14.278 12.927-14.961 12.799l-.037-.01-18.391-4.928c-8.659-2.32-13.796-11.218-11.476-19.875z" fill="url(#SVGID_00000089544331014600636370000014612948932576974262_)"/><path d="m156.295 366.129.214.057-8.4 31.35 4.207 1.127.037.01c.683.128 11.046 1.814 14.961-12.799 2.206-8.232-2.74-17.526-11.019-19.745z" fill="url(#SVGID_00000141450349687471021450000004581709828629844649_)"/></g><g><path d="m114.049 405.21c2.32-8.657 11.218-13.794 19.875-11.475l17.266 4.626c8.28 2.219 13.226 11.513 11.02 19.746-3.916 14.613-14.278 12.927-14.961 12.799l-.037-.01-21.687-5.811c-8.658-2.319-13.795-11.218-11.476-19.875z" fill="url(#SVGID_00000103977928483217831770000004086224965316614536_)"/><path d="m151.191 398.362-3.082-.826-8.4 31.35 7.503 2.01.037.01c.683.128 11.046 1.814 14.961-12.799 2.206-8.232-2.74-17.526-11.019-19.745z" fill="url(#SVGID_00000179638899227280882190000008720688718250238850_)"/></g><g><path d="m105.649 436.56c2.32-8.657 11.218-13.794 19.875-11.475l13.97 3.743c8.28 2.219 13.226 11.513 11.02 19.746-3.916 14.613-14.278 12.927-14.961 12.799l-.037-.01-18.391-4.928c-8.658-2.32-13.795-11.218-11.476-19.875z" fill="url(#SVGID_00000145750178892054438600000001957229590758163622_)"/><path d="m139.494 428.829.214.057-8.4 31.35 4.207 1.127.037.01c.683.128 11.046 1.814 14.961-12.799 2.207-8.233-2.739-17.527-11.019-19.745z" fill="url(#SVGID_00000093897267699845527520000008036799651071053497_)"/></g><g><path d="m97.249 467.91c2.32-8.657 11.218-13.794 19.875-11.475l8.646 2.317c8.28 2.219 13.226 11.513 11.02 19.746-3.916 14.613-14.278 12.927-14.961 12.799l-.037-.01-13.067-3.501c-8.658-2.321-13.795-11.219-11.476-19.876z" fill="url(#SVGID_00000144326384969423599530000013425978797135825059_)"/><path d="m125.77 458.752-3.082-.826-8.4 31.35 7.503 2.01.037.01c.683.128 11.046 1.814 14.961-12.799 2.207-8.233-2.739-17.527-11.019-19.745z" fill="url(#SVGID_00000138570459098049414320000017034722533697801623_)"/></g></g><path d="m160.002 373.888c-.116-1.186-.348-2.327-.673-3.419-2.258-7.613-9.282-13.055-17.502-13.099-2.039-.01-4.378-.096-6.94-.254-7.783-.477-15.501-1.462-23.117-2.918l-15.996-4.286c-6.015-1.612-12.289-1.869-18.455-.999-8.339 1.177-16.898.672-25.155-1.54-6.191-1.659-12.554 2.015-14.213 8.206l-16.021 59.789c6.309 4.37 16.804 8.65 24.65 10.752.062.017.123.033.185.049 16.72 4.431 34.238-3.626 41.883-19.141l4.752-9.644c.54-1.097 1.552-1.886 2.747-2.143 4.418-.95 8.951-1.25 13.455-.891l1.103.088c10.793.441 21.596.299 32.371-.449 10.296-.714 17.946-9.836 16.926-20.101z" fill="url(#SVGID_00000125565705061924022320000009759750698728967853_)"/><path d="m98.13 350.54-32.97 123.04c-2.8-1.01-5.5-2.25-8.08-3.7-3.86-2.18-7.44-4.84-10.66-7.93-3.88-3.74-8.65-6.44-13.86-7.83l-8.4-2.25c-6.19-1.66-9.86-8.03-8.2-14.22l16.79-62.68h.01l5.19-19.39c1.66-6.19 8.02-9.87 14.21-8.21 8.26 2.21 16.82 2.72 25.16 1.54 6.16-.87 12.44-.61 18.45 1z" fill="url(#SVGID_00000094578601023407383290000018047431085760021939_)"/></g><g><path d="m59.27 348.65-28.39 105.97c-1.18 4.39-5.7 7.01-10.1 5.83l-17.252-4.624c-2.081-.558-3.528-2.444-3.528-4.599 0-.416.055-.83.162-1.232l31.428-117.295 21.85 5.85c4.4 1.18 7.01 5.7 5.83 10.1z" fill="url(#SVGID_00000028315663153175777580000012698762420580681862_)"/><path d="m59.27 348.65-28.39 105.97c-1.18 4.39-5.7 7.01-10.1 5.83l-17.252-4.624c-2.081-.558-3.528-2.444-3.528-4.599 0-.416.055-.83.162-1.232l31.428-117.295 21.85 5.85c4.4 1.18 7.01 5.7 5.83 10.1z" fill="url(#SVGID_00000148644155911527150280000005004525931102550695_)"/><path d="m16.012 390.842-15.85 59.153c-.107.401-.162.816-.162 1.232 0 2.155 1.447 4.041 3.528 4.599l17.252 4.624c4.4 1.18 8.92-1.44 10.1-5.83l17.087-63.779h-31.955z" fill="url(#SVGID_00000182489778005747121160000015029089390175028655_)"/><path d="m36.55 332.47-33.43 124.8-.001.004c-.483 1.79-3.119 1.44-3.119-.414v-139.52c0-2.377 2.254-4.107 4.55-3.492l25.14 6.732c5.18 1.39 8.25 6.71 6.86 11.89z" fill="url(#SVGID_00000132047391697681776240000017336725268126409354_)"/></g></g></svg>