<svg id="b6a10b16-5295-4988-bcba-a68da88d987e" enable-background="new 0 0 128 128" height="512" viewBox="0 0 128 128" width="512" xmlns="http://www.w3.org/2000/svg"><g><g><path d="m37.646 32.027-9.765 6.356c-15.204 9.714-17.39 33.397-4.881 52.897s34.974 27.434 50.179 17.72l12.407-8.198z" fill="#e00e45"/><path d="m85.59 100.8-12.41 8.2c-15.21 9.71-37.67 1.78-50.18-17.72-4.484-6.874-7.223-14.738-7.98-22.91.98 3.63 13.12 2.93 13.12 2.93l8.86-14.3 18.45.57z" fill="#bf0640"/><ellipse cx="61.499" cy="66.502" fill="#ff1849" rx="32.564" ry="41.944" transform="matrix(.845 -.535 .535 .845 -26.026 43.178)"/><path d="m84.07 101.86c-15.14 9.71-37.51 1.76-49.97-17.77-2.554-3.975-4.559-8.277-5.96-12.79 10.38 4.5 27.48 20.1 41.86 13.7 12.42-5.53 16.63-21.75 22.83-28.74 7.81 17.78 4.51 37.07-8.76 45.6z" fill="#e00e45"/><path d="m91.48 53.42-28 14.54c-.285.147-.6.226-.92.23-1.107-.005-2-.906-1.996-2.012.003-.743.417-1.423 1.076-1.768l27.89-14.48c.71 1.15 1.36 2.32 1.95 3.49z" fill="#e00e45"/><g fill="#fff"><path d="m41.902 36.71c-12.648 8.081-14.269 28.178-3.607 44.799s29.628 23.565 42.276 15.484 14.269-28.178 3.607-44.799-29.628-23.565-42.276-15.484zm35.354 55.116c-10.117 6.464-25.54.522-34.373-13.249s-7.784-30.236 2.333-36.7 25.54-.522 34.373 13.249 7.784 30.236-2.333 36.7z"/><path d="m48.53 47.044c-7.594 4.852-8.064 17.682-1.06 28.602s18.878 15.864 26.471 11.013c7.586-4.847 8.064-17.682 1.059-28.602s-18.883-15.86-26.47-11.013zm22.097 34.448c-4.971 3.176-13.48-.846-18.568-8.777s-5.185-17.327-.214-20.503 13.48.846 18.568 8.777 5.185 17.327.214 20.503z"/><ellipse cx="61.5" cy="67" rx="5.534" ry="11.461" transform="matrix(.845 -.534 .534 .845 -26.287 43.235)"/></g><g fill="#d0deef"><path d="m66.15 64c.406.643.776 1.307 1.11 1.99l-3.78 1.97c-.285.147-.6.226-.92.23-1.107-.005-2-.906-1.996-2.012.003-.743.417-1.423 1.076-1.768l3.52-1.83c.34.45.67.92.99 1.42z"/><path d="m75 58.06c.628.976 1.205 1.984 1.73 3.02l-4.85 2.52c-.44-.897-.931-1.769-1.47-2.61-.18-.29-.37-.57-.57-.84l4.87-2.53c.1.15.2.29.29.44z"/><path d="m86.4 56.06-4.84 2.51c-.59-1.16-1.25-2.31-1.97-3.44-.01-.01-.01-.02-.02-.03l4.85-2.52c.719 1.125 1.38 2.287 1.98 3.48z"/></g><path d="m58.51 86.12c3.854.819 7.867.428 11.49-1.12 3.831-1.804 7.162-4.52 9.7-7.91-.65 4.11-2.58 7.54-5.76 9.57-4.32 2.76-10.03 2.35-15.43-.54z" fill="#d0deef"/><path d="m80.57 96.99c-12.65 8.08-31.61 1.14-42.28-15.48-1.358-2.117-2.542-4.341-3.54-6.65 2.9 1.73 6.07 3.73 9.39 5.57 8.99 12.44 23.47 17.56 33.12 11.4 6.84-4.38 9.53-13.33 7.82-22.93 1.36-2.41 2.62-4.78 3.86-6.93 4.88 14.07 1.87 28.48-8.37 35.02z" fill="#d0deef"/><g><path d="m59.831 65.341 49.341-49.341c.781-.781 2.047-.781 2.828 0 .781.781.781 2.047 0 2.828l-49.341 49.341c-.781.781-2.047.781-2.828 0-.781-.781-.781-2.047 0-2.828z" fill="#4c4372"/><g fill="#f0c38a"><path d="m99.979 16.707-5.746 5.746c-.839.839-1.263 2.008-1.155 3.191l.537 5.912 12.021-12.021-2.828-2.828c-.781-.781-2.048-.781-2.829 0z"/><path d="m111.293 28.021-5.746 5.746c-.839.839-2.008 1.263-3.191 1.155l-5.912-.537 12.021-12.021 2.828 2.828c.781.781.781 2.048 0 2.829z"/></g></g></g></g></svg>