<svg height="512" viewBox="0 0 64 64" width="512" xmlns="http://www.w3.org/2000/svg"><g id="Books-Education-Notebook-Agenda-Address_BookV" data-name="Books-Education-Notebook-Agenda-Address BookV"><path d="m54 43h-36a3.016 3.016 0 0 1 -1.98-.75v-.01a2.929 2.929 0 0 1 -1.02-2.24 3 3 0 0 1 3-3h36a2.968 2.968 0 0 0 -2.82 2 2.772 2.772 0 0 0 -.18 1 3 3 0 0 0 3 3z" fill="#d8d7da"/><path d="m52 15h-31a3.992 3.992 0 0 1 -3.87-3 3.657 3.657 0 0 1 -.13-1 3.995 3.995 0 0 1 4-4h31a4 4 0 0 0 0 8z" fill="#d8d7da"/><path d="m52 7a3.98 3.98 0 0 0 -3.46 2h-26.54a4.025 4.025 0 0 0 -2.83 1.17 4.078 4.078 0 0 0 -1.04 1.83 3.657 3.657 0 0 1 -.13-1 3.995 3.995 0 0 1 4-4z" fill="#c6c5ca"/><path d="m54 17c0 1.1-1.26 2-2.8 2h-29.2a8 8 0 0 1 0-16h30a2.015 2.015 0 0 1 2 2 2.006 2.006 0 0 1 -2 2h-30a4 4 0 0 0 0 8h29.2a3.335 3.335 0 0 1 1.97.59 1.738 1.738 0 0 1 .83 1.41z" fill="#3d9ae2"/><path d="m52 57h-36a2.974 2.974 0 0 1 -1.98-.76 2.929 2.929 0 0 1 -1.02-2.24 3 3 0 0 1 3-3h36a2.968 2.968 0 0 0 -2.82 2 2.772 2.772 0 0 0 -.18 1 3 3 0 0 0 3 3z" fill="#d8d7da"/><path d="m52 51a2.968 2.968 0 0 0 -2.82 2h-32.18a3 3 0 0 0 -3 3 .974.974 0 0 0 .02.24 2.929 2.929 0 0 1 -1.02-2.24 3 3 0 0 1 3-3z" fill="#c6c5ca"/><path d="m54 37a2.968 2.968 0 0 0 -2.82 2h-32.18a3 3 0 0 0 -3 3 .974.974 0 0 0 .02.24 2.929 2.929 0 0 1 -1.02-2.24 3 3 0 0 1 3-3z" fill="#c6c5ca"/><path d="m54 57v4h-37a7 7 0 0 1 0-14h37v4h-37a3 3 0 0 0 0 6z" fill="#3d9ae2"/><path d="m56 43v4h-37a7 7 0 0 1 0-14h37v4h-37a3 3 0 0 0 0 6z" fill="#ff5023"/><path d="m49 29h-35a2.968 2.968 0 0 1 -2.82-2 2.772 2.772 0 0 1 -.18-1 3 3 0 0 1 3-3h35a2.968 2.968 0 0 0 -2.82 2 2.772 2.772 0 0 0 -.18 1 3 3 0 0 0 3 3z" fill="#d8d7da"/><path d="m49 23a2.968 2.968 0 0 0 -2.82 2h-31.18a2.993 2.993 0 0 0 -2.12.88 2.838 2.838 0 0 0 -.7 1.12 2.772 2.772 0 0 1 -.18-1 3 3 0 0 1 3-3z" fill="#c6c5ca"/><path d="m12.88 23.88a3 3 0 0 0 2.12 5.12h37v4h-37a7 7 0 0 1 0-14h37v4h-37a2.993 2.993 0 0 0 -2.12.88z" fill="#ff9811"/><path d="m34 19v2l-1.5-2-1.5-2-1.5 2-1.5 2v-2-4-4h6v4z" fill="#ff5023"/><rect fill="#c6c5ca" height="2" rx="1" width="25" x="23" y="10"/></g></svg>